<svg width="512" height="512" viewBox="0 0 512 512" fill="none" xmlns="http://www.w3.org/2000/svg" role="img" aria-label="Mac Rabbit">
  <defs>
    <linearGradient id="mr-bg" x1="64" y1="48" x2="448" y2="464" gradientUnits="userSpaceOnUse">
      <stop stop-color="#0f172a"/>
      <stop offset=".55" stop-color="#1e40af"/>
      <stop offset="1" stop-color="#6d28d9"/>
    </linearGradient>
  </defs>
  <rect x="40" y="40" width="432" height="432" rx="104" fill="url(#mr-bg)"/>
  <path d="M138 362c17-51 59-86 119-94 8-62 38-116 90-161 15 48 6 94-27 138 36 8 65 27 83 54 25 39 16 87-24 119-31 25-77 38-137 38h-92" fill="#f8fafc"/>
  <path d="M241 264c-16-57 0-107 48-150 22 42 24 84 5 126" fill="none" stroke="#dbeafe" stroke-width="28" stroke-linecap="round" stroke-linejoin="round"/>
  <path d="M306 248c39-39 53-82 41-129" fill="none" stroke="#dbeafe" stroke-width="28" stroke-linecap="round" stroke-linejoin="round"/>
  <path d="M295 315c31 2 54 20 67 51" fill="none" stroke="#1e40af" stroke-width="20" stroke-linecap="round" opacity=".42"/>
  <circle cx="321" cy="291" r="10" fill="#1e293b"/>
</svg>
